<svg aria-hidden="true" style="position: absolute; width: 0; height: 0; overflow: hidden;" version="1.1" xmlns="http://www.w3.org/2000/svg" xmlns:xlink="http://www.w3.org/1999/xlink">
<defs>

<symbol id="telegram" width="24" height="24" fill="none" xmlns="http://www.w3.org/2000/svg">
<path d="M24 0L0 13.5l7.67 2.84L19.5 5.25l-8.998 12.14.007.002-.009-.002V24l4.301-5.018L20.251 21 24 0z" fill="#fff"/>
</symbol>

<symbol id="phone-form"  viewBox="0 0 16 12">
<path d="M11.996 9.1226l-1.8381-.21a1.4406 1.4406 0 00-1.1869.4126l-1.3316 1.3316c-2.048-1.0421-3.7269-2.7138-4.769-4.7691l1.3388-1.3388a1.4406 1.4406 0 00.4125-1.1868L4.412 1.5383A1.4484 1.4484 0 002.9717.2574h-1.252C.902.2574.2218.9377.2725 1.7554.656 7.9358 5.5987 12.8713 11.7717 13.2549c.8177.0506 1.498-.6296 1.498-1.4474v-1.2519c.0072-.731-.5428-1.3461-1.2737-1.433z" />
</symbol>

<symbol id="mail-form"  viewBox="0 0 16 12">
<path d="M14 0H2C1.175 0 .5075.675.5075 1.5L.5 10.5c0 .825.675 1.5 1.5 1.5h12c.825 0 1.5-.675 1.5-1.5v-9C15.5.675 14.825 0 14 0zm-.3 3.1875l-5.3025 3.315c-.24.15-.555.15-.795 0L2.3 3.1875c-.1875-.12-.3-.3225-.3-.54 0-.5025.5475-.8025.975-.54L8 5.25l5.025-3.1425c.4275-.2625.975.0375.975.54 0 .2175-.1125.42-.3.54z"/>
</symbol>

<symbol id="license-submit2-form" fill="none" viewBox="0 0 16 15">
<rect width="16" height="15" rx="2" fill="#2196F3"/>
<path d="M3.957 7.7517l-.0687-.0657-.069.0654-.888.8412-.0764.0723.076.0726 3.4958 3.3349.069.0658.069-.0658 7.5043-7.1589.0759-.0723-.0759-.0724-.8817-.8412-.069-.0658-.069.0658-6.5535 6.2459L3.957 7.7517z" fill="#fff" stroke="#fff" stroke-width=".2"/>
</symbol>

<symbol id="close-form" width="11" height="11" viewBox="0 0 11 11" >
<path d="M11 1.108L9.892 0 5.5 4.392 1.108 0 0 1.108 4.392 5.5 0 9.892 1.108 11 5.5 6.608 9.892 11 11 9.892 6.608 5.5 11 1.108z" />
</symbol>

<symbol id="person-ico"  width="12" height="12" viewBox="0 0 12 12">
<path d="M6 6c1.6575 0 3-1.3425 3-3S7.6575 0 6 0 3 1.3425 3 3s1.3425 3 3 3zm0 1.5c-2.0025 0-6 1.005-6 3v.75c0 .4125.3375.75.75.75h10.5c.4125 0 .75-.3375.75-.75v-.75c0-1.995-3.9975-3-6-3z" />
</symbol>

<symbol id="icon-twitter" viewBox="0 0 32 32">
<path  d="M32 6.078c-1.19 0.522-2.458 0.868-3.78 1.036 1.36-0.812 2.398-2.088 2.886-3.626-1.268 0.756-2.668 1.29-4.16 1.588-1.204-1.282-2.92-2.076-4.792-2.076-3.632 0-6.556 2.948-6.556 6.562 0 0.52 0.044 1.020 0.152 1.496-5.454-0.266-10.28-2.88-13.522-6.862-0.566 0.982-0.898 2.106-0.898 3.316 0 2.272 1.17 4.286 2.914 5.452-1.054-0.020-2.088-0.326-2.964-0.808v0.072c0 3.188 2.274 5.836 5.256 6.446-0.534 0.146-1.116 0.216-1.72 0.216-0.42 0-0.844-0.024-1.242-0.112 0.85 2.598 3.262 4.508 6.13 4.57-2.214 1.744-5.044 2.798-8.12 2.798-0.005 0-0.010 0-0.015 0h0.001c-0.538 0-1.054-0.024-1.57-0.090 2.906 1.874 6.35 2.944 10.064 2.944 12.072 0 18.672-10 18.672-18.668 0-0.29-0.010-0.57-0.024-0.848 1.302-0.924 2.396-2.078 3.288-3.406z"></path>
</symbol>

<symbol id="icon-facebook" viewBox="0 0 32 32">
<path  d="M20.529 5.313h2.921v-5.088c-0.504-0.069-2.237-0.225-4.256-0.225-4.212 0-7.097 2.649-7.097 7.519v4.481h-4.648v5.688h4.648v14.312h5.699v-14.311h4.46l0.708-5.688h-5.169v-3.919c0.001-1.644 0.444-2.769 2.735-2.769z"></path>
</symbol>

<symbol id="icon-linkedin" viewBox="0 0 32 32">
<path  d="M31.992 32v-0.001h0.008v-11.736c0-5.741-1.236-10.164-7.948-10.164-3.227 0-5.392 1.771-6.276 3.449h-0.093v-2.913h-6.364v21.364h6.627v-10.579c0-2.785 0.528-5.479 3.977-5.479 3.399 0 3.449 3.179 3.449 5.657v10.401h6.62zM0.528 10.636h6.635v21.364h-6.635v-21.364zM3.843 0c-2.121 0-3.843 1.721-3.843 3.843s1.721 3.879 3.843 3.879c2.121 0 3.843-1.757 3.843-3.879-0.001-2.121-1.723-3.843-3.843-3.843z"></path>
</symbol>

<symbol id="icon-instagram" viewBox="0 0 32 32">
<path  d="M31.969 9.408c-0.075-1.7-0.35-2.869-0.744-3.882-0.406-1.075-1.032-2.038-1.851-2.838-0.78-0.792-1.724-1.419-2.778-1.826l-0.054-0.018c-1.019-0.394-2.182-0.669-3.882-0.744-1.713-0.081-2.257-0.1-6.601-0.1s-4.888 0.019-6.595 0.094c-1.7 0.075-2.869 0.35-3.882 0.744-1.075 0.406-2.038 1.031-2.838 1.85-0.792 0.78-1.419 1.724-1.826 2.778l-0.018 0.054c-0.394 1.019-0.669 2.181-0.744 3.882-0.081 1.713-0.1 2.257-0.1 6.602s0.019 4.888 0.094 6.595c0.075 1.7 0.35 2.869 0.744 3.882 0.427 1.11 1.056 2.057 1.849 2.837l0.001 0.001c0.78 0.792 1.724 1.419 2.778 1.826l0.054 0.018c1.019 0.394 2.182 0.669 3.882 0.744 1.706 0.075 2.25 0.094 6.595 0.094s4.888-0.019 6.595-0.094c1.7-0.075 2.869-0.35 3.882-0.744 2.157-0.85 3.832-2.525 4.663-4.627l0.019-0.055c0.394-1.019 0.669-2.182 0.744-3.882 0.075-1.707 0.094-2.251 0.094-6.595s-0.006-4.888-0.081-6.595zM29.087 22.473c-0.069 1.563-0.331 2.407-0.55 2.969-0.551 1.4-1.639 2.487-3.002 3.026l-0.036 0.013c-0.563 0.219-1.413 0.481-2.969 0.55-1.688 0.075-2.194 0.094-6.464 0.094s-4.782-0.019-6.464-0.094c-1.563-0.069-2.407-0.331-2.969-0.55-0.694-0.256-1.325-0.663-1.838-1.194-0.517-0.504-0.923-1.117-1.183-1.804l-0.011-0.034c-0.219-0.563-0.481-1.413-0.55-2.969-0.075-1.688-0.094-2.194-0.094-6.464s0.019-4.782 0.094-6.464c0.069-1.563 0.331-2.407 0.55-2.969 0.256-0.694 0.663-1.325 1.2-1.838 0.504-0.517 1.117-0.923 1.804-1.183l0.034-0.011c0.563-0.219 1.413-0.481 2.969-0.55 1.688-0.075 2.194-0.094 6.464-0.094 4.276 0 4.782 0.019 6.464 0.094 1.563 0.069 2.407 0.331 2.969 0.55 0.694 0.256 1.325 0.662 1.838 1.194 0.531 0.519 0.938 1.144 1.194 1.838 0.219 0.563 0.481 1.413 0.55 2.969 0.075 1.688 0.094 2.194 0.094 6.464s-0.019 4.77-0.094 6.458z"></path>
<path  d="M16.059 7.783c-4.538 0-8.22 3.682-8.22 8.22s3.682 8.22 8.22 8.22c4.539 0 8.22-3.682 8.22-8.22s-3.682-8.22-8.22-8.22zM16.059 21.335c-2.944 0-5.332-2.388-5.332-5.332s2.388-5.332 5.332-5.332c2.944 0 5.332 2.388 5.332 5.332s-2.388 5.332-5.332 5.332zM26.524 7.458c0 1.060-0.859 1.919-1.919 1.919s-1.919-0.859-1.919-1.919c0-1.060 0.859-1.919 1.919-1.919s1.919 0.859 1.919 1.919z"></path>
</symbol>

<symbol id="icon-smartphone" width="20px" height="18px" viewBox="0 0 32 32">
<path  d="M23 0h-14c-1.654 0-3 1.346-3 3v26c0 1.654 1.346 3 3 3h14c1.654 0 3-1.346 3-3v-26c0-1.654-1.346-3-3-3zM9 2h14c0.552 0 1 0.448 1 1v21h-16v-21c0-0.552 0.448-1 1-1zM23 30h-14c-0.552-0-1-0.448-1-1v-3h16v3c0 0.552-0.448 1-1 1z"></path>
<path  d="M10.707 27.478c0.391 0.365 0.391 0.956 0 1.321s-1.024 0.365-1.414 0c-0.391-0.365-0.391-0.956 0-1.321s1.024-0.365 1.414 0z"></path>
</symbol>

<symbol id="icon-mail-ico" width="22px" height="16px" viewBox="0 0 32 32">
<path  d="M29 4h-26c-1.654 0-3 1.346-3 3v18c0 1.654 1.346 3 3 3h26c1.654 0 3-1.346 3-3v-18c0-1.654-1.346-3-3-3zM29 6c0.138 0 0.27 0.029 0.39 0.080l-0.006-0.002-13.383 11.599-13.383-11.599c0.113-0.049 0.245-0.077 0.383-0.077h26zM29 26h-26c-0.552-0-1-0.448-1-1v-16.81l13.345 11.566c0.174 0.152 0.403 0.244 0.654 0.244 0 0 0.001 0 0.001 0h-0c0 0 0.001 0 0.001 0 0.251 0 0.48-0.092 0.655-0.245l-0.001 0.001 13.345-11.566v16.81c0 0.552-0.448 1-1 1z"></path>
</symbol>

<symbol id="icon-logo-6" width="88" height="45">
<path d="M44.74 21.353a3.258 3.258 0 01-.57-2.057v-2.982c0-.915.19-1.61.567-2.085.378-.475 1.028-.712 1.949-.71.865 0 1.48.202 1.843.607.396.516.589 1.147.545 1.784v.7h-1.548v-.71a3.961 3.961 0 00-.045-.694.689.689 0 00-.221-.413.836.836 0 00-.561-.16.886.886 0 00-.59.17.81.81 0 00-.256.455c-.045.243-.065.49-.061.737v3.62a2 2 0 00.198 1.016.735.735 0 00.31.247.78.78 0 00.399.057.788.788 0 00.548-.164.747.747 0 00.23-.44c.037-.24.053-.483.049-.725v-.735h1.548v.67a2.914 2.914 0 01-.536 1.876c-.355.443-.961.664-1.852.664-.891 0-1.564-.236-1.946-.728zM51.186 21.384c-.391-.465-.587-1.141-.587-2.036V16.21c0-.886.196-1.556.587-2.011.39-.455 1.044-.682 1.961-.68.91 0 1.56.227 1.952.68.39.455.59 1.125.59 2.011v3.138c0 .886-.2 1.565-.596 2.033-.398.467-1.045.7-1.946.7-.9 0-1.567-.236-1.961-.697zm2.682-.753c.14-.29.204-.61.186-.928v-3.841a1.843 1.843 0 00-.183-.91.738.738 0 00-.316-.25.785.785 0 00-.408-.054.794.794 0 00-.41.054.749.749 0 00-.317.25c-.141.283-.205.596-.186.91v3.859c-.02.32.044.638.186.928a.96.96 0 00.326.23 1.009 1.009 0 00.796 0 .96.96 0 00.326-.23v-.018zM57.55 13.61h1.667l1.253 5.79 1.282-5.79h1.622l.163 8.356H62.34l-.128-5.807-1.238 5.807h-.961l-1.282-5.828-.119 5.828H57.4l.15-8.355zM65.406 13.61h2.596c1.495 0 2.243.791 2.243 2.373 0 1.515-.787 2.271-2.362 2.27H67v3.713h-1.603l.01-8.355zm2.218 3.571c.158.02.319.006.47-.04.153-.045.293-.122.411-.223.184-.283.265-.614.23-.944a2.854 2.854 0 00-.076-.758.63.63 0 00-.118-.23.67.67 0 00-.203-.168 1.528 1.528 0 00-.714-.133h-.622v2.496h.622zM72.556 13.61h1.721l1.766 8.356h-1.494l-.349-1.927h-1.535l-.359 1.927H70.79l1.766-8.355zm1.471 5.462l-.6-3.508-.599 3.508h1.2zM77.47 13.61h1.12l2.148 4.767V13.61h1.33v8.355h-1.067l-2.16-4.976v4.976h-1.375l.003-8.355zM85.183 18.78l-1.785-5.158h1.503l1.09 3.313 1.022-3.313h1.471l-1.762 5.158v3.186h-1.539V18.78zM47.215 25.619v.437h-1.308v3.395h-.548v-3.395h-1.314v-.437h3.17zM51.314 29.451h-.423a.176.176 0 01-.119-.036.196.196 0 01-.07-.088l-.378-.91H48.51l-.379.91a.257.257 0 01-.057.103.183.183 0 01-.119.036h-.423l1.603-3.832h.557l1.622 3.817zm-2.654-1.423h1.513l-.641-1.56a2.964 2.964 0 01-.119-.36l-.06.203-.058.16-.635 1.557zM54.077 29.075c.1.005.2.005.3 0 .087-.009.173-.024.257-.046a1.82 1.82 0 00.23-.07c.071-.027.142-.06.216-.093v-.862h-.641a.12.12 0 01-.087-.03.084.084 0 01-.032-.07v-.295h1.244v1.469a2.355 2.355 0 01-.677.312 2.653 2.653 0 01-.4.08 4.455 4.455 0 01-.468.024 2.252 2.252 0 01-.808-.143 1.935 1.935 0 01-.64-.4 1.849 1.849 0 01-.414-.607 2.074 2.074 0 01-.148-.795 2.155 2.155 0 01.145-.802c.092-.227.232-.433.413-.606.183-.173.401-.308.641-.398.274-.098.566-.146.859-.142.15 0 .298.01.445.033.13.02.258.052.382.097.112.04.22.09.32.152.099.06.192.127.28.2l-.155.237a.14.14 0 01-.052.052.15.15 0 01-.073.02.196.196 0 01-.1-.03 1.906 1.906 0 01-.156-.09 1.369 1.369 0 00-.215-.104 1.869 1.869 0 00-.295-.085 2.256 2.256 0 00-.407-.033 1.743 1.743 0 00-.618.106c-.179.068-.34.171-.471.303-.133.138-.235.3-.298.477a1.953 1.953 0 000 1.277c.07.18.179.345.32.482.132.132.291.235.468.304.204.066.42.092.635.076zM59.185 29.014h1.75v.437H58.65v-3.832h.548l-.013 3.395zM62.755 29.45h-.548V25.62h.548v3.832zM64.794 25.637a.27.27 0 01.083.07l2.343 2.889a.972.972 0 010-.137v-2.855h.477v3.847h-.275a.24.24 0 01-.119-.021.314.314 0 01-.086-.073l-2.34-2.885v2.979h-.458V25.62h.285c.031 0 .062.006.09.018zM71.732 25.619v.422H69.79v1.265h1.574v.406H69.79v1.308h1.942v.422h-2.506v-3.823h2.506zM14.303 1.954l24.335 6.541v22.922L14.305 24.88V1.954zM12.743 0v25.992l27.453 7.382V7.384L12.743 0z"/><path d="M27.456 45.44L0 38.052v-25.99l27.456 7.385V45.44z"/><path d="M13.198 1.66l24.017 6.459-10.214 9.672-24.02-6.462 10.217-9.67zM12.743 0L0 12.063l27.456 7.385 12.74-12.063L12.743 0zM29.001 43.978l11.195-10.6-11.195-3.013v13.613z"/>
</symbol>

<symbol id="icon-logo-5" width="59px" height="47px">
<path d="M4.488 39.278c.23.285.352.643.346 1.01a1.604 1.604 0 01-.536 1.277c-.447.339-1 .504-1.559.466H0v-6.405h2.683a2.284 2.284 0 011.487.426 1.464 1.464 0 01.52 1.198c.016.353-.095.7-.311.98-.209.254-.496.43-.817.5.363.067.692.26.926.548zm-3.213-.967H2.42c.261.02.52-.056.73-.213a.761.761 0 00.246-.626.788.788 0 00-.243-.625 1.106 1.106 0 00-.751-.216H1.275v1.68zm1.988 2.456a.796.796 0 00.271-.65.81.81 0 00-.277-.658 1.18 1.18 0 00-.78-.231H1.276v1.761h1.218c.274.016.546-.062.77-.222zM9.973 42.031L8.48 39.528h-.561v2.503H6.635v-6.405h2.43a2.39 2.39 0 011.693.545 2.047 2.047 0 01.18 2.65c-.3.345-.709.575-1.159.65l1.59 2.56H9.973zm-2.054-3.376h1.05c.73 0 1.094-.323 1.094-.97a.957.957 0 00-.268-.72 1.135 1.135 0 00-.826-.26H7.906l.013 1.95zM16.99 40.742h-2.558l-.452 1.29h-1.346l2.35-6.334h1.455l2.34 6.333h-1.346l-.442-1.289zm-.342-.97l-.935-2.703-.935 2.703h1.87zM25.776 42.031H24.5l-2.857-4.355v4.355h-1.272v-6.405h1.272l2.857 4.38v-4.38h1.275v6.405zM33.05 40.498a2.757 2.757 0 01-1.153 1.13c-.555.281-1.171.42-1.792.403h-2.27v-6.405h2.27a3.816 3.816 0 011.791.395c.488.246.89.636 1.154 1.117a3.736 3.736 0 010 3.36zm-1.459-.153a2.352 2.352 0 000-3.057 2.21 2.21 0 00-1.596-.545h-.885v4.146h.886a2.21 2.21 0 001.595-.544zM17.788 0S34.24 6.236 33.892 15.26v15.263s-16.44-6.24-16.096-15.263L17.788 0zM48.547 26.95A22.486 22.486 0 0159 23.082v-4.778a21.466 21.466 0 00-10.453 8.646z" /><path d="M46.68 28.389A22.382 22.382 0 0159 17.303V3.536s-23.43 8.883-22.934 21.733V47s1.044-.397 2.687-1.142c0-.695 0-1.395.075-2.1A22.606 22.606 0 0146.68 28.39z" /><path d="M44.453 36.462c.123-1.507.397-2.998.82-4.45a21.04 21.04 0 00-4.962 13.126 68.003 68.003 0 004.506-2.384 22.581 22.581 0 01-.364-6.292zM45.384 36.54a21.585 21.585 0 00.29 5.698c6.401-3.846 13.594-9.788 13.317-16.968v-.626a20.972 20.972 0 00-12.18 5.713 21.496 21.496 0 00-1.427 6.183z" />
</symbol>

<symbol id="icon-logo-4" width="80" height="43">
<path  d="M12.402 12.83h-.003c-2.262 0-4.096 1.788-4.096 3.992v.003c0 2.204 1.834 3.992 4.096 3.992h.003c2.262 0 4.096-1.788 4.096-3.992v-.003c0-2.204-1.834-3.991-4.096-3.991zM42.637 11.555c-.007-3.063-1.258-5.997-3.48-8.163C36.938 1.227 33.926.007 30.784 0c-3.143.006-6.156 1.225-8.379 3.39-2.223 2.166-3.474 5.102-3.48 8.165V28.44s23.71-2.573 23.713-16.883v-.002zM0 33.982a7.96 7.96 0 002.422 5.68 8.384 8.384 0 005.827 2.362 8.384 8.384 0 005.826-2.361 7.96 7.96 0 002.423-5.678v-11.75S0 24.029 0 33.983zm8.25 2.105a2.2 2.2 0 01-1.201-.354 2.117 2.117 0 01-.796-.945 2.055 2.055 0 01-.123-1.216c.084-.409.29-.784.592-1.078a2.178 2.178 0 011.106-.576c.419-.082.853-.04 1.248.12.394.159.732.429.97.775a2.067 2.067 0 01.201 1.977c-.108.257-.267.49-.468.686-.2.196-.439.352-.701.458a2.21 2.21 0 01-.829.161v-.008zM25.089 34.781h-1.688v1.743h-.878V32.26H25.3v.712H23.4v1.101h1.688v.71zm4.225-.293c0 .42-.075.788-.223 1.105-.149.316-.361.56-.639.732a1.755 1.755 0 01-.949.258 1.695 1.695 0 01-1.59-.981 2.511 2.511 0 01-.232-1.09V34.3c0-.42.075-.79.225-1.108.153-.32.367-.565.642-.735.277-.172.594-.258.95-.258.355 0 .67.086.945.258.278.17.492.415.642.735.152.319.229.687.229 1.105v.19zm-.891-.193c0-.447-.08-.787-.24-1.02a.783.783 0 00-.686-.348.782.782 0 00-.682.346c-.16.228-.242.564-.244 1.007v.208c0 .436.08.774.24 1.014.16.24.391.36.692.36a.775.775 0 00.68-.345c.158-.233.238-.57.24-1.014v-.208zm3.741 1.11a.447.447 0 00-.176-.38c-.117-.09-.328-.184-.632-.282a4.56 4.56 0 01-.724-.293c-.484-.262-.727-.614-.727-1.057 0-.23.065-.436.194-.616.13-.181.317-.323.56-.425.244-.101.517-.152.82-.152.304 0 .576.056.814.167.238.11.423.265.554.466.133.201.199.43.199.686h-.879c0-.196-.061-.347-.184-.454-.123-.11-.296-.165-.519-.165-.215 0-.382.046-.501.138a.426.426 0 00-.179.358c0 .138.07.254.208.348.14.094.347.182.618.264.5.15.865.337 1.093.56.229.222.343.5.343.831 0 .37-.14.66-.419.87-.28.21-.655.314-1.128.314-.328 0-.627-.06-.896-.179a1.438 1.438 0 01-.619-.495 1.27 1.27 0 01-.21-.726h.881c0 .47.282.706.844.706.21 0 .372-.042.49-.126a.418.418 0 00.175-.358zm4.69-2.434h-1.306v3.553h-.879v-3.553H33.38v-.712h3.475v.712zm3.07 1.705h-1.687v1.142h1.98v.706H37.36V32.26h2.853v.712h-1.975v1.016h1.688v.689zm2.389.287h-.7v1.561h-.88V32.26h1.586c.503 0 .892.112 1.165.337.274.224.41.542.41.952 0 .29-.063.534-.19.73a1.282 1.282 0 01-.571.462l.923 1.743v.041h-.944l-.8-1.561zm-.7-.712h.708c.221 0 .392-.056.513-.167a.607.607 0 00.182-.466c0-.201-.058-.36-.173-.474-.113-.116-.288-.173-.525-.173h-.706v1.28zm5.326.77v1.503h-.88V32.26h1.665c.32 0 .601.058.844.176.244.117.431.284.562.5.13.215.196.46.196.736 0 .418-.143.748-.43.99-.285.24-.681.36-1.187.36h-.77zm0-.711h.785c.232 0 .409-.055.53-.165.123-.109.185-.265.185-.468a.704.704 0 00-.185-.507c-.123-.129-.293-.195-.51-.2h-.805v1.34zm5.56.366h-1.687v1.142h1.98v.706h-2.86V32.26h2.854v.712h-1.974v1.016h1.687v.689zm4.078-1.705h-1.306v3.553h-.88v-3.553h-1.288v-.712h3.474v.712zm3.07 1.705H57.96v1.142h1.98v.706h-2.859V32.26h2.854v.712H57.96v1.016h1.688v.689zm2.388.287h-.7v1.561h-.879V32.26h1.585c.504 0 .893.112 1.166.337.274.224.41.542.41.952 0 .29-.063.534-.19.73a1.282 1.282 0 01-.571.462l.922 1.743v.041h-.943l-.8-1.561zm-.7-.712h.71c.22 0 .39-.056.512-.167a.607.607 0 00.181-.466c0-.201-.057-.36-.172-.474-.114-.116-.288-.173-.525-.173h-.706v1.28zm5.165 1.154a.447.447 0 00-.176-.38c-.117-.09-.328-.184-.632-.282a4.56 4.56 0 01-.724-.293c-.484-.262-.727-.614-.727-1.057 0-.23.065-.436.194-.616.13-.181.317-.323.56-.425.243-.101.517-.152.82-.152.304 0 .576.056.814.167.238.11.423.265.554.466.133.201.199.43.199.686h-.879c0-.196-.061-.347-.184-.454-.124-.11-.296-.165-.52-.165-.214 0-.38.046-.5.138a.426.426 0 00-.179.358c0 .138.07.254.208.348.14.094.347.182.618.264.5.15.865.337 1.093.56.229.222.343.5.343.831 0 .37-.14.66-.419.87-.28.21-.655.314-1.128.314-.328 0-.627-.06-.896-.179a1.439 1.439 0 01-.619-.495 1.27 1.27 0 01-.21-.726h.881c0 .47.282.706.844.706.21 0 .372-.042.49-.126a.418.418 0 00.175-.358z"></path>
</symbol>

<symbol id="icon-logo-3" width="41" height="43"><path d="M6.345 41.795a.118.118 0 01.08.034l.206.216c-.16.174-.357.314-.579.409-.26.104-.539.154-.82.147a2.011 2.011 0 01-.772-.137 1.672 1.672 0 01-.957-.986 2.163 2.163 0 01-.131-.767 2.017 2.017 0 01.141-.77c.09-.222.226-.425.4-.597.175-.17.385-.302.616-.39.254-.094.524-.14.795-.137.253-.006.504.036.738.125.204.084.391.2.553.345l-.172.23a.173.173 0 01-.044.042.11.11 0 01-.069.018.157.157 0 01-.075-.025l-.092-.061-.129-.079a1.4 1.4 0 00-.406-.137 1.643 1.643 0 00-.306-.024 1.532 1.532 0 00-.571.102 1.29 1.29 0 00-.448.29c-.128.133-.227.29-.29.46-.073.195-.109.401-.106.608-.003.21.033.42.105.618.063.169.16.325.286.458.118.125.264.222.427.285.168.066.348.1.53.098.105.001.21-.005.314-.02.17-.02.332-.076.475-.164.072-.045.14-.096.204-.152a.153.153 0 01.097-.04zM12.287 40.71c.003.26-.044.52-.139.763a1.655 1.655 0 01-.387.592 1.754 1.754 0 01-.608.388 2.296 2.296 0 01-1.564 0 1.777 1.777 0 01-.604-.39 1.74 1.74 0 01-.391-.597 2.167 2.167 0 010-1.527c.087-.223.22-.427.39-.6a1.78 1.78 0 01.605-.375 2.258 2.258 0 011.564 0c.228.088.435.22.607.39.17.17.301.37.388.59.095.245.143.505.14.767zm-.54 0a1.759 1.759 0 00-.098-.612 1.208 1.208 0 00-.71-.747 1.658 1.658 0 00-1.137 0 1.208 1.208 0 00-.712.747c-.13.4-.13.827 0 1.226a1.203 1.203 0 00.712.745c.367.13.77.13 1.137 0 .166-.064.314-.162.435-.287.123-.134.217-.29.275-.458.07-.198.102-.405.098-.613zM16.34 41.353l.055.137c.02-.049.038-.093.059-.137a1.32 1.32 0 01.067-.135l1.314-2.276c.026-.04.049-.064.075-.071a.322.322 0 01.108-.012h.388v3.702h-.46V39.84v-.115a1.085 1.085 0 010-.128l-1.322 2.309a.202.202 0 01-.078.084.216.216 0 01-.113.03h-.074c-.04.001-.08-.01-.113-.03a.2.2 0 01-.078-.084l-1.36-2.324v2.973h-.445v-3.695h.388a.322.322 0 01.108.012.15.15 0 01.072.071l1.343 2.279a.805.805 0 01.067.132zM21.287 41.17v1.386h-.514V38.86h1.147c.216-.004.432.023.64.08.167.045.321.124.453.23.114.1.202.225.257.363.061.151.09.312.088.473.002.162-.03.323-.096.473a1.01 1.01 0 01-.277.37 1.27 1.27 0 01-.456.245c-.2.061-.41.09-.62.086l-.622-.01zm0-.398h.623c.135.002.27-.017.398-.056a.843.843 0 00.288-.16.652.652 0 00.175-.244.768.768 0 00.062-.312.677.677 0 00-.052-.3.708.708 0 00-.18-.253 1.033 1.033 0 00-.691-.199h-.623v1.524zM28.201 42.561h-.406a.181.181 0 01-.114-.034.226.226 0 01-.067-.086l-.35-.894h-1.756l-.363.894a.2.2 0 01-.064.083.181.181 0 01-.116.037h-.406l1.543-3.703h.535l1.564 3.703zm-2.546-1.375h1.45l-.612-1.507a2.6 2.6 0 01-.116-.348l-.059.194a1.84 1.84 0 01-.056.157l-.607 1.504zM30.423 38.875c.031.017.058.04.078.067l2.25 2.79v-.129-2.745h.46v3.703h-.257a.23.23 0 01-.105-.022.283.283 0 01-.082-.069l-2.249-2.788c.003.042.003.085 0 .127v2.753h-.46v-3.704h.273c.032 0 .063.005.092.017zM37.003 41.088v1.47h-.515v-1.47l-1.422-2.23h.46a.173.173 0 01.111.032.314.314 0 01.07.084l.89 1.438c.035.061.066.118.092.172.026.053.046.105.064.156l.067-.159a1.3 1.3 0 01.088-.169l.877-1.448a.379.379 0 01.067-.079.161.161 0 01.11-.036h.466l-1.425 2.24zM16.086 32.644c.224.027.45.05.68.069 3.47-1.48 6.406-3.9 8.44-6.96 2.035-3.06 3.077-6.624 2.998-10.246l-3.825-3.644a20.22 20.22 0 01-1.05 11.512c-1.465 3.67-3.973 6.88-7.243 9.27z" /><path d="M14.72 32.475l.103.02c3.495-2.382 6.159-5.707 7.648-9.546a19.54 19.54 0 00.707-11.99L17.73 5.77a24.082 24.082 0 012.558 13.768c-.533 4.728-2.464 9.214-5.568 12.938zM33.196 19.786c-.925 3.98-3.173 7.568-6.41 10.234a20.218 20.218 0 01-3.045 2.082 18.188 18.188 0 007.08-3.813 17.085 17.085 0 004.585-6.4l-2.21-2.103z" /><path d="M32.33 19.2l-3.146-2.997a18.475 18.475 0 01-2.953 9.67c-1.873 2.915-4.532 5.299-7.699 6.903h.016c.705 0 1.41-.04 2.111-.12a19.338 19.338 0 007.611-5.33 18.093 18.093 0 004.06-8.126zM15.176 3.58L11.423 0c-3.355 1.235-6.24 3.406-8.278 6.23C1.107 9.053.01 12.397 0 15.823c.013 3.787 1.35 7.46 3.801 10.441 2.451 2.98 5.875 5.097 9.731 6.015 3.442-3.995 5.457-8.932 5.753-14.093.295-5.161-1.144-10.277-4.11-14.606zM41 18.649c-.014-4.492-1.893-8.797-5.227-11.973-3.334-3.177-7.852-4.967-12.567-4.98-2.179-.002-4.34.381-6.371 1.13l22.977 21.89A16.072 16.072 0 0041 18.65z" />
</symbol>

<symbol id="icon-logo-2" width="40" height="52">
<path  d="M16.977 2.935h.136c.253 0 .527.025.797.048 1.193.084 2.377.263 3.542.534V.654A21.09 21.09 0 0017.797.07 29.24 29.24 0 0016.319 0h-.427c-2.475.01-4.94.327-7.337.946-2.73.68-5.35 1.747-7.784 3.166v28.397a31.634 31.634 0 017.42-2.892 32.36 32.36 0 016.228-.956h.084c.351-.018.703-.028 1.065-.03v-2.91a34.328 34.328 0 00-8.095 1.076c-.98.255-1.925.53-2.813.834l-1.012.344V5.833l.432-.208a28.275 28.275 0 0110.516-2.683.627.627 0 01.091 0c.403-.02.808-.03 1.205-.03h.455c.21.005.42.01.63.023z"></path>
<path  d="M24.11 5.933a25.913 25.913 0 01-4.234-.344c-.45-.076-.893-.168-1.323-.267v28.072c1.82.45 3.69.67 5.565.656a29.943 29.943 0 007.337-.944 29.815 29.815 0 007.786-3.166V2.05a31.777 31.777 0 01-7.417 2.893c-2.52.648-5.112.98-7.713.99zm11.225.485l1.012-.34v22.148l-.433.209a27.764 27.764 0 01-5.173 1.859c-2.163.56-4.387.847-6.62.857-.668 0-1.33-.028-1.973-.084l-.693-.061V8.228l.807.054c.587.038 1.194.056 1.854.056 2.835-.01 5.659-.372 8.406-1.078.944-.25 1.882-.529 2.813-.842zM2.737 42.212a1.492 1.492 0 00-1.125-.455 1.673 1.673 0 00-.65.122 1.463 1.463 0 00-.832.842c-.08.2-.12.413-.117.628v3.794c-.01.267.042.533.149.778.09.195.219.368.38.509.151.127.33.22.52.27.185.051.376.078.567.078.212.002.42-.043.612-.132a1.599 1.599 0 00.96-1.465v-.424h-.992v.338a.881.881 0 01-.059.338.608.608 0 01-.144.214.697.697 0 01-.415.145.503.503 0 01-.465-.204.899.899 0 01-.132-.508v-3.538c-.006-.196.036-.39.122-.567a.507.507 0 01.485-.229.527.527 0 01.443.214.806.806 0 01.165.509v.328h.981v-.387a1.788 1.788 0 00-.121-.664 1.562 1.562 0 00-.332-.534zM8.629 42.17a1.765 1.765 0 00-1.128-.418c-.202 0-.403.037-.592.107A1.559 1.559 0 006 42.7c-.1.231-.15.482-.145.735v3.638c-.006.256.043.51.145.745.09.196.22.37.384.509.152.14.33.25.524.32.19.07.39.106.592.107a1.714 1.714 0 001.128-.427c.158-.142.286-.315.374-.509.102-.234.151-.489.145-.745v-3.639a1.77 1.77 0 00-.145-.734 1.643 1.643 0 00-.374-.532zm-.463 4.904a.654.654 0 01-.197.527.727.727 0 01-.934 0 .652.652 0 01-.197-.527v-3.639a.654.654 0 01.197-.526.727.727 0 01.934 0 .651.651 0 01.197.526v3.64zM16.367 48.7v-6.89h-.953l-1.253 3.647h-.017l-1.263-3.646h-.943v6.888h.984v-4.19h.018l.963 2.962h.491l.972-2.962h.017v4.19h.984zM21.958 42.294c-.152-.17-.343-.3-.557-.377a2.184 2.184 0 00-.713-.107h-1.462v6.89h.981v-2.691h.506c.307.014.611-.051.886-.188a1.43 1.43 0 00.538-.527c.114-.183.19-.387.226-.6a4.9 4.9 0 00.053-.783c.01-.33-.023-.662-.096-.984a1.466 1.466 0 00-.362-.633zm-.506 2.1a.868.868 0 01-.091.359.552.552 0 01-.253.241 1.006 1.006 0 01-.463.087h-.448v-2.342h.506a.942.942 0 01.443.086.556.556 0 01.23.254c.054.121.083.252.086.384v.458c0 .16.01.326 0 .473h-.01zM26.608 41.81h-.805l-1.518 6.89h.982l.288-1.48h1.338l.289 1.48h.982l-1.556-6.89zm-.906 4.471l.483-2.497h.018l.48 2.497h-.981zM32.95 45.96h-.018l-1.482-4.15h-.944v6.89h.982v-4.143h.02l1.5 4.142h.923v-6.888h-.981v4.15zM38.948 41.81l-.79 2.74h-.02l-.79-2.74H36.31l1.348 3.978v2.911h.982v-2.911l1.348-3.977h-1.04zM0 50.645h.473v1.327h.321v-1.328h.47v-.272H0v.273zM3.977 50.372l-.62 1.6h.341l.132-.364h.637l.137.364h.35l-.636-1.6h-.341zm-.05.967l.217-.593.217.593h-.435zM7.908 51.382h.37v.206a.613.613 0 01-.38.135.404.404 0 01-.34-.153.669.669 0 01-.118-.417c0-.356.154-.534.46-.534a.337.337 0 01.362.255l.316-.062c-.068-.312-.293-.47-.678-.47a.804.804 0 00-.559.206.78.78 0 00-.23.615.873.873 0 00.205.6.776.776 0 00.607.235.96.96 0 00.678-.255v-.63h-.693v.27zM11.923 50.372h-.324v1.6h1.12V51.7h-.796v-1.328zM15.318 50.372h-.324v1.6h.324v-1.6zM18.636 51.44l-.655-1.068h-.314v1.6h.301v-1.045l.643 1.045h.321v-1.6h-.296v1.069zM21.637 51.267h.797v-.272h-.797v-.35h.857v-.273h-1.181v1.6h1.214V51.7h-.89v-.433zM28.912 51.003h-.63v-.63h-.32v1.599h.32v-.7h.63v.7h.322v-1.6h-.322v.631zM31.93 51.267h.8v-.272h-.8v-.35h.86v-.273H31.61v1.6h1.212V51.7h-.89v-.433zM36.023 51.268c.278-.044.42-.191.42-.445a.383.383 0 00-.157-.356.904.904 0 00-.468-.094h-.678v1.599h.322v-.669h.063a.431.431 0 01.2.036c.047.029.086.069.114.117l.349.508h.384l-.195-.312a1.115 1.115 0 00-.354-.384zm-.324-.222h-.237v-.401h.253a.84.84 0 01.326.038.21.21 0 01-.015.325.913.913 0 01-.327.038zM39.11 51.267h.796v-.272h-.796v-.35h.86v-.273h-1.184v1.6H40V51.7h-.89v-.433z"></path>
</symbol>

<symbol id="icon-logo-1" width="45" height="50">
<path d="M6 0l7.308 6.918h20.384v19.298L41 33.134V0H6z"></path>
<path  d="M0 6.626v32.188h34V26.02L13.523 6.634 0 6.626zm27.523 27.48H5.38V12.457h1.565V32.64h20.578v1.465zM9.791 44.784l.818-1.685h.684L10.1 45.345v1.309h-.62v-1.309L8.287 43.1h.686l.818 1.685zm3.51 1.042h-1.376l-.288.828h-.642l1.342-3.555h.555l1.345 3.555h-.645l-.29-.828zm-1.203-.498h1.03l-.515-1.475-.515 1.475zm3.638.366c0-.164.045-.315.134-.451.09-.139.266-.302.53-.491a2.265 2.265 0 01-.29-.444.877.877 0 01-.081-.354c0-.279.084-.498.254-.66.169-.162.397-.244.683-.244.26 0 .47.077.635.23.166.151.25.34.25.564a.785.785 0 01-.113.41 1.34 1.34 0 01-.369.371l-.242.176.687.81c.099-.195.148-.412.148-.651h.515c0 .437-.102.796-.307 1.076l.522.618h-.688l-.2-.237a1.47 1.47 0 01-.909.286c-.351 0-.633-.093-.844-.279a.932.932 0 01-.315-.73zm1.177.535c.2 0 .387-.067.561-.2l-.776-.916-.076.054c-.195.148-.293.317-.293.508 0 .164.053.298.159.4a.585.585 0 00.425.154zm-.328-2.29c0 .137.084.308.252.515l.27-.185.077-.061a.44.44 0 00.151-.345.311.311 0 00-.105-.236.37.37 0 00-.266-.1.348.348 0 00-.276.117.432.432 0 00-.103.295zm6.458 1.558c-.036.379-.176.675-.42.888-.244.212-.569.318-.974.318-.283 0-.533-.067-.75-.2a1.332 1.332 0 01-.498-.574 2.065 2.065 0 01-.183-.862v-.332c0-.335.06-.63.178-.886.12-.256.29-.453.51-.591.224-.139.48-.208.772-.208.392 0 .708.107.947.32.24.213.379.514.418.903h-.615c-.03-.255-.104-.439-.225-.551-.119-.114-.294-.171-.525-.171-.268 0-.475.098-.62.295-.143.196-.216.483-.22.862v.315c0 .384.069.677.206.879.138.202.34.303.605.303.242 0 .425-.055.547-.164.122-.109.2-.29.232-.544h.615zm3.391-.528c0 .349-.06.654-.18.918-.121.262-.294.464-.518.606-.223.14-.48.21-.772.21-.288 0-.545-.07-.771-.21a1.405 1.405 0 01-.523-.603 2.124 2.124 0 01-.185-.901v-.2c0-.347.06-.653.183-.918.124-.266.297-.468.52-.608.225-.142.482-.213.771-.213.29 0 .547.07.77.21.224.139.398.339.52.6.122.261.184.565.185.912v.197zm-.618-.185c0-.394-.075-.696-.224-.906a.728.728 0 00-.633-.315.731.731 0 00-.627.315c-.15.208-.226.504-.23.886v.205c0 .39.076.693.228.906.153.213.364.32.634.32.274 0 .484-.104.63-.313.148-.208.222-.512.222-.913v-.185z"></path>
</symbol>

<symbol id="icon-diagram" viewBox="0 0 32 32">
<path fill="#2196f3" style="fill: var(--color3, #2196f3)" d="M14.926 14.965h1.066v4.798h-1.066v-4.797zM19.19 17.097h1.066v2.665h-1.066v-2.665zM10.661 18.696h1.066v1.066h-1.066v-1.066zM7.463 18.163h1.066v1.599h-1.066v-1.599z"></path>
<path fill="#212121" style="fill: var(--color5, #212121)" d="M1.599 28.291h25.587c0.883 0 1.599-0.716 1.599-1.599v-2.132c0-0.883-0.716-1.599-1.599-1.599h-0.533v-13.293l3.028-2.868c0.703 0.346 1.553 0.136 2.013-0.499s0.396-1.508-0.152-2.068c-0.548-0.56-1.42-0.644-2.065-0.198s-0.873 1.292-0.542 2.002l-2.281 2.163v-1.23c0-0.883-0.716-1.599-1.599-1.599h-21.322c-0.883 0-1.599 0.716-1.599 1.599v15.992h-0.533c-0.883 0-1.599 0.716-1.599 1.599v2.132c0 0.883 0.716 1.599 1.599 1.599zM30.384 4.837c0.294 0 0.533 0.239 0.533 0.533s-0.239 0.533-0.533 0.533c-0.294 0-0.533-0.239-0.533-0.533s0.239-0.533 0.533-0.533zM3.198 6.969c0-0.294 0.239-0.533 0.533-0.533h21.322c0.294 0 0.533 0.239 0.533 0.533v2.239l-1.066 1.013v-2.186c0-0.294-0.239-0.533-0.533-0.533h-19.19c-0.294 0-0.533 0.239-0.533 0.533v13.326c0 0.294 0.239 0.533 0.533 0.533h19.19c0.294 0 0.533-0.239 0.533-0.533v-9.674l1.066-1.010v12.284h-22.388v-15.992zM7.996 13.899c-0.721-0.002-1.354 0.478-1.546 1.174s0.105 1.433 0.725 1.801c0.62 0.368 1.41 0.276 1.928-0.226l1.853 0.93c0.069 0.035 0.151 0.056 0.238 0.056 0.158 0 0.3-0.069 0.398-0.178l0-0.001 3.939-4.431 3.872 2.901c0.088 0.066 0.199 0.106 0.32 0.106 0.142 0 0.271-0.056 0.367-0.146l-0 0 3.365-3.188v8.131h-18.124v-12.26h18.124v2.66l-3.771 3.572-3.904-2.927c-0.222-0.166-0.534-0.135-0.718 0.072l-3.993 4.493-1.493-0.746c0.010-0.056 0.017-0.123 0.020-0.19l0-0.003c0-0.883-0.716-1.599-1.599-1.599zM8.529 15.498c0 0.294-0.239 0.533-0.533 0.533s-0.533-0.239-0.533-0.533c0-0.294 0.239-0.533 0.533-0.533s0.533 0.239 0.533 0.533zM11.727 24.027h5.331v0.533c0 0.294-0.239 0.533-0.533 0.533h-4.264c-0.294 0-0.533-0.239-0.533-0.533v-0.533zM1.066 24.56c0-0.294 0.239-0.533 0.533-0.533h9.062v0.533c0 0.883 0.716 1.599 1.599 1.599h4.264c0.883 0 1.599-0.716 1.599-1.599v-0.533h9.062c0.294 0 0.533 0.239 0.533 0.533v2.132c0 0.294-0.239 0.533-0.533 0.533h-25.587c-0.294 0-0.533-0.239-0.533-0.533v-2.132z"></path>
</symbol>

<symbol id="icon-clock" viewBox="0 0 32 32">
<path fill="#212121" style="fill: var(--color5, #212121)" d="M31.297 15.301c-0.002-8.452-6.855-15.303-15.308-15.301s-15.303 6.855-15.301 15.308c0.001 6.658 4.307 12.551 10.649 14.576 0.061 0.019 0.124 0.029 0.187 0.029 0.126-0 0.245-0.035 0.346-0.095l-0.003 0.002c0.134-0.080 0.234-0.204 0.282-0.352l0.001-0.005 3.865-12.25c1.057-0.005 1.909-0.866 1.903-1.923s-0.866-1.909-1.923-1.903c-0.299 0.001-0.581 0.072-0.831 0.196l0.011-0.005-5.106-5.107c-0.253-0.245-0.657-0.238-0.902 0.016-0.239 0.247-0.239 0.639 0 0.886l5.103 5.109c-0.392 0.799-0.168 1.764 0.536 2.309l-3.683 11.673c-7.278-2.681-11.004-10.754-8.323-18.032s10.754-11.004 18.032-8.323c7.278 2.681 11.004 10.754 8.323 18.032-1.345 3.581-4.003 6.406-7.374 7.938l-0.088 0.036-0.398-1.874c-0.073-0.344-0.411-0.565-0.756-0.492-0.114 0.025-0.213 0.077-0.293 0.149l0.001-0.001-3.837 3.426c-0.263 0.234-0.287 0.637-0.052 0.9 0.076 0.085 0.174 0.149 0.283 0.184l4.899 1.563c0.335 0.108 0.694-0.077 0.802-0.412 0.019-0.058 0.031-0.126 0.031-0.195 0-0.047-0.005-0.092-0.015-0.136l0.001 0.004-0.391-1.839c5.664-2.388 9.342-7.942 9.329-14.089zM15.992 14.664c0.352 0 0.638 0.286 0.638 0.638s-0.286 0.638-0.638 0.638c-0.352 0-0.638-0.285-0.638-0.638s0.285-0.638 0.638-0.638zM18.093 29.528l2.184-1.948 0.603 2.84-2.787-0.892z"></path>
<path fill="#2196f3" style="fill: var(--color3, #2196f3)" d="M15.354 3.185v1.275c0 0.352 0.285 0.638 0.638 0.638s0.638-0.285 0.638-0.638v-1.275c0-0.352-0.286-0.638-0.638-0.638s-0.638 0.286-0.638 0.638zM3.876 14.664c-0.352 0-0.638 0.286-0.638 0.638s0.285 0.638 0.638 0.638h1.275c0.352 0 0.638-0.285 0.638-0.638s-0.285-0.638-0.638-0.638h-1.275zM28.108 15.939c0.352 0 0.638-0.285 0.638-0.638s-0.285-0.638-0.638-0.638h-1.275c-0.352 0-0.638 0.286-0.638 0.638s0.286 0.638 0.638 0.638h1.275z"></path>
</symbol>

<symbol id="icon-astronaut" viewBox="0 0 32 32">
<path fill="#2196f3" style="fill: var(--color3, #2196f3)" d="M31.974 4.524c-0.064-0.191-0.227-0.332-0.427-0.362l-0.003-0-1.91-0.278-0.855-1.731c-0.179-0.365-0.777-0.365-0.956 0l-0.855 1.731-1.91 0.278c-0.203 0.030-0.367 0.171-0.43 0.359l-0.001 0.004c-0.062 0.193-0.011 0.405 0.135 0.547l1.383 1.348-0.326 1.903c-0.034 0.2 0.048 0.402 0.212 0.522 0.087 0.064 0.196 0.102 0.313 0.102 0.091 0 0.177-0.023 0.252-0.063l-0.003 0.001 1.709-0.899 1.709 0.899c0.078 0.041 0.164 0.061 0.249 0.061 0.11 0 0.221-0.034 0.314-0.102 0.134-0.098 0.22-0.254 0.22-0.431 0-0.032-0.003-0.063-0.008-0.094l0 0.003-0.326-1.903 1.383-1.348c0.099-0.097 0.161-0.233 0.161-0.382 0-0.059-0.009-0.115-0.027-0.168l0.001 0.004zM29.511 5.851c-0.099 0.097-0.161 0.232-0.161 0.382 0 0.032 0.003 0.063 0.008 0.094l-0-0.003 0.191 1.114-1-0.526c-0.072-0.039-0.157-0.061-0.248-0.061-0 0-0 0-0.001 0h0c-0.085 0-0.17 0.020-0.249 0.061l-1.001 0.526 0.191-1.114c0.005-0.027 0.008-0.058 0.008-0.090 0-0.15-0.062-0.285-0.161-0.382l-0.81-0.789 1.119-0.163c0.177-0.026 0.324-0.137 0.4-0.289l0.001-0.003 0.5-1.013 0.5 1.013c0.078 0.157 0.228 0.267 0.402 0.292l1.119 0.163-0.809 0.789zM26.134 20.522h-1.067v1.067h1.067v-1.067zM26.134 22.656h-1.067v1.067h1.067v-1.067zM27.2 21.589h-1.067v1.067h1.067v-1.067zM25.067 21.589h-1.067v1.067h1.067v-1.067zM22.4 26.389h-1.067v1.067h1.067v-1.067zM22.4 28.522h-1.067v1.067h1.067v-1.067zM23.467 27.456h-1.067v1.067h1.067v-1.067zM21.333 27.456h-1.067v1.067h1.067v-1.067zM16 24.256h-1.067v1.067h1.067v-1.067zM16 26.389h-1.067v1.067h1.067v-1.067zM17.067 25.322h-1.067v1.067h1.067v-1.067zM14.933 25.322h-1.067v1.067h1.067v-1.067zM5.867 6.122h-1.067v1.067h1.067v-1.067zM5.867 8.255h-1.067v1.067h1.067v-1.067z"></path>
<path fill="#2196f3" style="fill: var(--color3, #2196f3)" d="M6.933 7.189h-1.067v1.067h1.067v-1.067zM4.8 7.189h-1.067v1.067h1.067v-1.067z"></path>
<path fill="#212121" style="fill: var(--color5, #212121)" d="M24.715 14.159c-0.287-0.388-0.709-0.637-1.188-0.705-0.481-0.068-0.956 0.058-1.34 0.352l-1.252 0.96-1.898 1.417-1.358-0.541c2.421-1.086 4.114-3.508 4.114-6.32 0-3.823-3.123-6.933-6.961-6.933s-6.961 3.11-6.961 6.933c0 1.386 0.414 2.674 1.12 3.758l-2.769-0.024c-0.009 0-0.015 0.004-0.023 0.005-0.056 0.003-0.109 0.014-0.159 0.032l0.004-0.001c-0.013 0.005-0.026 0.008-0.038 0.013-0.006 0.003-0.013 0.003-0.019 0.006l-3.233 1.596c-0.001 0-0.001 0-0.001 0.001l-1.893 0.911c-0.024 0.011-0.045 0.023-0.064 0.036l0.001-0.001c-0.755 0.502-1.012 1.489-0.598 2.295 0.22 0.429 0.595 0.745 1.056 0.889 0.161 0.052 0.347 0.083 0.539 0.083h0c0.29 0 0.577-0.071 0.839-0.211l1.388-0.738 2.264-1.169 1.357-0.008-5.442 5.416c-0.001 0.001-0.001 0.001-0.002 0.001l-1.339 1.333c-0.316 0.315-0.49 0.732-0.49 1.178s0.174 0.863 0.49 1.179c0.325 0.323 0.752 0.485 1.179 0.485s0.854-0.162 1.18-0.485l1.314-1.309 1.741-1.3 0.901 0.897-1.762 1.754c-0 0.001-0.001 0.001-0.002 0.001l-1.339 1.333c-0.316 0.315-0.49 0.732-0.49 1.178s0.174 0.863 0.49 1.179c0.325 0.323 0.753 0.485 1.18 0.485s0.855-0.162 1.18-0.485l3.482-3.467c0.001-0.001 0.001-0.001 0.001-0.002l1.010-1-0.004-0.004c0.006-0.006 0.015-0.009 0.022-0.015l5.166-5.658 3.471 0.494c0.022 0.003 0.048 0.005 0.073 0.005 0.001 0 0.001 0 0.002 0h-0c0.065 0 0.127-0.015 0.187-0.038 0.018-0.006 0.033-0.015 0.050-0.023 0.019-0.010 0.039-0.015 0.058-0.027l3.213-2.133c0.012-0.008 0.018-0.021 0.029-0.029 0.013-0.010 0.029-0.014 0.041-0.026l1.271-1.191c0.662-0.62 0.753-1.635 0.212-2.362zM2.13 17.77c-0.173 0.093-0.37 0.111-0.558 0.052-0.187-0.058-0.338-0.186-0.427-0.358-0.161-0.314-0.068-0.695 0.214-0.902l1.314-0.632 0.449 1.312-0.992 0.528zM5.628 15.942l-1.548 0.8-0.439-1.283 2.027-1.001-0.040 1.484zM20.727 9.322c0 0.918-0.219 1.785-0.599 2.559l-4.181-1.899c-0.044-0.573-0.341-1.075-0.788-1.388l1.464-4.86c2.378 0.756 4.105 2.974 4.105 5.588zM8.938 9.322c0-3.235 2.644-5.867 5.894-5.867 0.253 0 0.5 0.021 0.745 0.052l-1.432 4.754c-0.019-0.001-0.037-0.006-0.057-0.006-1.033 0-1.873 0.837-1.873 1.867s0.84 1.867 1.873 1.867c0.694 0 1.294-0.383 1.618-0.945l3.862 1.755c-1.075 1.446-2.795 2.39-4.737 2.39-3.25 0-5.894-2.632-5.894-5.867zM14.894 10.122c0 0.441-0.362 0.8-0.806 0.8s-0.806-0.359-0.806-0.8c0-0.441 0.362-0.8 0.806-0.8s0.806 0.359 0.806 0.8zM2.465 25.146c-0.236 0.234-0.619 0.234-0.854 0.001-0.114-0.114-0.176-0.263-0.176-0.423s0.062-0.309 0.176-0.421l0.962-0.958 0.851 0.848-0.959 0.955zM5.679 28.88c-0.236 0.234-0.619 0.235-0.855 0.001-0.114-0.114-0.176-0.263-0.176-0.423s0.062-0.309 0.176-0.421l0.963-0.959 0.852 0.848-0.96 0.955zM9.16 25.411c-0.001 0-0.001 0-0.002 0.001l-1.765 1.76-0.852-0.848 1.763-1.756c0.001-0.001 0.001-0.001 0.002-0.001 0.040-0.040 0.065-0.088 0.090-0.135 0.007-0.014 0.020-0.026 0.026-0.040 0.017-0.041 0.019-0.085 0.026-0.129 0.003-0.025 0.014-0.047 0.014-0.073 0-0.036-0.013-0.070-0.020-0.106-0.006-0.032-0.006-0.065-0.019-0.095-0.020-0.050-0.055-0.094-0.091-0.138-0.010-0.012-0.014-0.027-0.025-0.038h-0.001c-0.001-0-0.001-0.002-0.001-0.002l-1.607-1.6c-0.017-0.017-0.039-0.024-0.058-0.038-0.028-0.022-0.055-0.042-0.087-0.058-0.030-0.015-0.061-0.024-0.093-0.033-0.034-0.010-0.067-0.017-0.103-0.020-0.033-0.002-0.063 0.001-0.095 0.005-0.036 0.004-0.069 0.009-0.104 0.020-0.034 0.011-0.063 0.027-0.094 0.045-0.020 0.011-0.042 0.015-0.061 0.029l-1.773 1.324-0.901-0.897 2.399-2.386 4.361 4.289-0.928 0.919zM15.979 18.394c-0.015-0.002-0.030 0.004-0.045 0.003-0.008-0-0.017-0.001-0.026-0.001-0.031 0-0.062 0.003-0.092 0.008l0.003-0c-0.030 0.005-0.059 0.011-0.088 0.021-0.034 0.012-0.065 0.028-0.097 0.047s-0.059 0.039-0.084 0.062l0-0c-0.013 0.011-0.028 0.017-0.040 0.029l-4.698 5.146-4.328-4.257 2.833-2.818c0.209-0.208 0.21-0.546 0.002-0.755-0.105-0.105-0.243-0.157-0.381-0.156v-0.001l-2.219 0.013 0.028-1.607 3.104 0.027c1.265 1.294 3.029 2.101 4.981 2.101 0.437 0 0.864-0.045 1.279-0.123 0.040 0.032 0.079 0.065 0.13 0.085l2.41 0.96 0.331 1.644-3.003-0.427zM20.020 18.572l-0.313-1.558 1.446-1.080 0.947 1.257-2.080 1.381zM23.774 15.741l-0.838 0.785-0.931-1.236 0.831-0.637c0.155-0.119 0.351-0.168 0.543-0.143 0.193 0.027 0.364 0.128 0.48 0.284 0.217 0.292 0.18 0.699-0.085 0.947z"></path>
<path fill="#212121" style="fill: var(--color5, #212121)" d="M13.602 18.544l-2.143-2.133c-0.207-0.207-0.545-0.207-0.753 0l-2.142 2.133c-0.097 0.097-0.157 0.23-0.157 0.378v0c0 0.142 0.056 0.278 0.157 0.378l2.142 2.133c0.104 0.103 0.241 0.155 0.377 0.155s0.273-0.052 0.376-0.155l2.143-2.133c0.097-0.097 0.157-0.23 0.157-0.378v-0c0-0.142-0.057-0.278-0.157-0.378zM11.083 20.303l-1.387-1.381 1.387-1.381 1.387 1.381-1.387 1.381zM17.164 5.071l-0.258 1.036c0.071 0.018 1.738 0.452 1.738 2.149h1.067c-0-2.017-1.666-2.965-2.547-3.185zM19.711 9.322h-1.067v1.067h1.067v-1.067z"></path>
</symbol>

<symbol id="icon-antenna" viewBox="0 0 32 32">
<path fill="#212121" style="fill: var(--color5, #212121)" d="M30.773 22.098l-8.443-8.505 0.937-4.615c0.225 0.090 0.485 0.144 0.758 0.146h0.007c1.192 0.014 2.17-0.941 2.184-2.133s-0.941-2.17-2.133-2.184c-1.192-0.014-2.17 0.941-2.184 2.133-0 0.008-0 0.017-0 0.026 0 0.259 0.046 0.508 0.13 0.738l-0.005-0.015-4.96 0.605-8.091-8.133c-0.096-0.098-0.229-0.159-0.376-0.16h-0c-0.146 0.001-0.278 0.060-0.373 0.155l-1.513 1.504c-0.208 0.208-0.208 0.546 0 0.754l0.814 0.826c-3.153 5.798-2.129 12.978 2.519 17.663 0.043 0.041 0.092 0.074 0.146 0.098-0.032 0.164-0.051 0.353-0.052 0.546v6.188h-6.4c-1.472 0.002-2.665 1.195-2.667 2.667v1.067c0 0.295 0.239 0.533 0.533 0.533h24.533c0.295 0 0.533-0.239 0.533-0.533v-1.067c-0.002-1.472-1.195-2.665-2.667-2.667h-6.4v-2.742c0.915 0.201 1.968 0.317 3.047 0.32h0.002c2.58-0.003 5.005-0.663 7.117-1.822l-0.077 0.039 0.818 0.823c0.099 0.101 0.235 0.159 0.377 0.16 0.146-0.001 0.278-0.060 0.373-0.155l1.513-1.504c0.208-0.208 0.208-0.546 0-0.754zM23.28 6.233c0.418-0.415 1.093-0.414 1.508 0.004s0.414 1.093-0.004 1.508c-0.193 0.192-0.459 0.31-0.752 0.31-0 0-0 0-0 0h-0.003c-0.589-0.003-1.064-0.483-1.061-1.072 0.002-0.294 0.122-0.559 0.314-0.751l0-0h-0.002zM22.024 9.738l-0.598 2.946-1.175-1.182 1.774-1.763zM21.419 8.836l-1.92 1.909-1.485-1.493 3.405-0.415zM24.004 28.8c0.884 0 1.6 0.716 1.6 1.6v0.533h-23.467v-0.533c0-0.884 0.716-1.6 1.6-1.6h20.267zM16.537 26.667v1.067h-5.333v-1.067h5.333zM11.204 25.6v-4.053c0-1.294 1.196-2.347 2.667-2.347s2.667 1.053 2.667 2.347v4.053h-5.333zM17.604 23.904v-2.357c0-1.882-1.675-3.413-3.733-3.413-0.017-0-0.038-0-0.058-0-1.353 0-2.54 0.707-3.213 1.771l-0.009 0.016c-4.058-4.274-4.971-10.645-2.279-15.887l18.602 18.708c-1.823 0.947-3.98 1.502-6.266 1.502-1.079 0-2.128-0.124-3.136-0.357l0.093 0.018zM28.893 23.22l-21.057-21.181 0.755-0.752 7.935 7.98c0.004 0 0.006 0.007 0.010 0.010l13.115 13.191-0.757 0.752z"></path>
<path fill="#2196f3" style="fill: var(--color3, #2196f3)" d="M13.876 20.267h-0.005c-0.884-0.001-1.601 0.714-1.602 1.598s0.714 1.601 1.598 1.602h0.005c0.884 0.001 1.601-0.714 1.602-1.598s-0.714-1.601-1.598-1.602zM14.249 22.245c-0.096 0.096-0.229 0.155-0.376 0.155-0.001 0-0.001 0-0.002 0h0c-0.295-0.002-0.532-0.242-0.531-0.536 0.002-0.292 0.238-0.529 0.53-0.531h0c0.295 0.002 0.532 0.241 0.53 0.536-0.001 0.147-0.061 0.279-0.157 0.375l-0 0h0.005z"></path>
</symbol>

</defs>
</svg>
